<svg width="184" height="36" viewBox="0 0 184 36" fill="none" xmlns="http://www.w3.org/2000/svg">
  <circle cx="15" cy="18" r="15" fill="#0A0A0A" />
  <path
    d="M15 15.3636C15 11.8491 12.0899 9 8.5 9V16.6364C8.5 20.1509 11.4101 23 15 23C18.5898 23 21.5 20.1509 21.5 16.6364V9C17.9101 9 15 11.8491 15 15.3636Z"
    fill="white" />
  <path d="M19 25V25C16.7909 25 15 26.7909 15 29V29V29C17.2091 29 19 27.2091 19 25V25Z" fill="white" />
  <path d="M11 25V25C13.2091 25 15 26.7909 15 29V29V29C12.7909 29 11 27.2091 11 25V25Z" fill="white" />
  <path
    d="M48.973 25.285C52.944 25.285 55.338 22.5015 55.338 18.6255C55.338 18.5495 55.319 18.027 55.3 17.8275H50.455V19.623H52.868C52.5165 21.979 51.177 23.157 49.1155 23.1285C46.3605 23.0905 44.983 21.1525 44.9925 18.16C45.002 15.1675 46.3605 13.163 49.1155 13.201C50.93 13.2105 52.1175 14.2555 52.64 15.8705L54.977 15.5C54.2835 12.688 52.336 11.035 48.973 11.035C45.3155 11.035 42.57 13.676 42.57 18.16C42.57 22.72 45.4105 25.285 48.973 25.285ZM59.165 25V19.7845C59.165 18.597 59.583 17.6375 60.5235 17.1245C61.16 16.754 62.0245 16.7065 62.642 16.8775V14.74C61.7205 14.5975 60.6755 14.759 59.9155 15.2815C59.488 15.5475 59.146 15.937 58.8895 16.3835V14.74H56.866V25H59.165ZM68.5538 25.285C70.5298 25.285 72.2968 24.221 73.0853 22.359L70.8243 21.675C70.3778 22.625 69.5418 23.138 68.4208 23.138C66.8628 23.138 65.9508 22.1975 65.7703 20.5065H73.1993C73.4653 16.811 71.6033 14.455 68.4208 14.455C65.3998 14.455 63.3193 16.621 63.3193 19.984C63.3193 23.1 65.4378 25.285 68.5538 25.285ZM68.5158 16.4595C69.9313 16.4595 70.6818 17.172 70.8813 18.7775H65.8273C66.0933 17.2575 66.9768 16.4595 68.5158 16.4595ZM79.6035 25.285C81.5795 25.285 83.3465 24.221 84.135 22.359L81.874 21.675C81.4275 22.625 80.5915 23.138 79.4705 23.138C77.9125 23.138 77.0005 22.1975 76.82 20.5065H84.249C84.515 16.811 82.653 14.455 79.4705 14.455C76.4495 14.455 74.369 16.621 74.369 19.984C74.369 23.1 76.4875 25.285 79.6035 25.285ZM79.5655 16.4595C80.981 16.4595 81.7315 17.172 81.931 18.7775H76.877C77.143 17.2575 78.0265 16.4595 79.5655 16.4595ZM88.0094 25V19.7275C88.0094 17.2385 89.2444 16.602 90.4129 16.602C92.5979 16.602 92.8069 18.7965 92.8069 20.06V25H95.1249V19.2715C95.1249 18.0555 94.8684 14.4455 91.0874 14.4455C89.6054 14.4455 88.4844 14.9965 87.7339 15.88V14.74H85.6914V25H88.0094ZM109.169 25V22.853H103.127V11.32H100.838V25H109.169ZM112.878 13.182V11.0825H110.589V13.182H112.878ZM112.878 25V14.74H110.589V25H112.878ZM118.526 25V16.5355H121.006V14.74H118.526V14.0845C118.526 13.3815 118.944 12.897 119.818 12.897H121.006V11.035H119.723C118.973 11.035 117.776 10.9685 116.911 11.9375C116.218 12.6975 116.237 13.7995 116.237 14.5785V14.74H114.584V16.5355H116.237V25H118.526ZM126.438 25.285C128.414 25.285 130.181 24.221 130.969 22.359L128.708 21.675C128.262 22.625 127.426 23.138 126.305 23.138C124.747 23.138 123.835 22.1975 123.654 20.5065H131.083C131.349 16.811 129.487 14.455 126.305 14.455C123.284 14.455 121.203 16.621 121.203 19.984C121.203 23.1 123.322 25.285 126.438 25.285ZM126.4 16.4595C127.815 16.4595 128.566 17.172 128.765 18.7775H123.711C123.977 17.2575 124.861 16.4595 126.4 16.4595Z"
    fill="#0A0A0A" />
</svg>
