<svg width="184" height="36" viewBox="0 0 184 36" fill="none" xmlns="http://www.w3.org/2000/svg">
  <path fill-rule="evenodd" clip-rule="evenodd"
    d="M2.88146 6.03314C6.38837 3.0447 11.9315 3.58464 15 7C18.0685 3.58464 23.6116 3.0447 27.1185 6.03314C30.6254 9.02158 30.9808 14.2129 27.9123 17.6282L16.4877 30.344C15.6931 31.2285 14.3069 31.2285 13.5123 30.344L2.08773 17.6282C-0.98081 14.2129 -0.625447 9.02158 2.88146 6.03314Z"
    fill="#0A0A0A" />
  <path d="M11 17V17.5" stroke="white" stroke-width="3" stroke-linecap="round" stroke-linejoin="round" />
  <path d="M19 17V17.5" stroke="white" stroke-width="3" stroke-linecap="round" stroke-linejoin="round" />
  <path d="M12 23C12 23 12.75 22 15 22C17.25 22 18 23 18 23" stroke="white" stroke-linecap="round"
    stroke-linejoin="round" />
  <path
    d="M47.6494 12.2539C46.8792 13.0749 46.2656 13.4854 45.8086 13.4854C45.3008 13.4854 44.848 13.1595 44.4502 12.5078C44.0609 11.8646 43.8662 11.1833 43.8662 10.4639C43.8662 9.74447 44.0355 9.11816 44.374 8.58496C44.721 8.04329 45.1781 7.5651 45.7451 7.15039C46.3122 6.73568 46.9596 6.37598 47.6875 6.07129C48.4238 5.7666 49.1855 5.51693 49.9727 5.32227C51.5299 4.92448 52.8376 4.72559 53.8955 4.72559C54.9619 4.72559 55.8548 4.77214 56.5742 4.86523C57.2936 4.94987 57.9876 5.09375 58.6562 5.29688C59.3249 5.5 59.9554 5.76237 60.5479 6.08398C61.1403 6.39714 61.6608 6.77799 62.1094 7.22656C63.0573 8.19987 63.5312 9.41439 63.5312 10.8701C63.5312 12.3766 63.0573 13.9212 62.1094 15.5039C61.1953 17.0358 60.0104 18.3053 58.5547 19.3125C57.0059 20.3704 55.4443 20.8994 53.8701 20.8994C53.0999 20.8994 52.4229 20.709 51.8389 20.3281C51.5596 20.1335 51.4157 19.9092 51.4072 19.6553C51.3988 19.3929 51.403 19.1559 51.4199 18.9443C51.4876 18.0726 51.6781 17.0485 51.9912 15.8721C52.609 16.126 53.2692 16.2529 53.9717 16.2529C54.6742 16.2529 55.2581 16.181 55.7236 16.0371C56.1891 15.8848 56.6546 15.6732 57.1201 15.4023C57.5941 15.1315 58.0469 14.8099 58.4785 14.4375C58.9186 14.0651 59.3079 13.6504 59.6465 13.1934C60.3828 12.1947 60.751 11.2467 60.751 10.3496C60.751 9.45247 60.5436 8.74577 60.1289 8.22949C59.7227 7.70475 59.1979 7.28581 58.5547 6.97266C57.3444 6.37174 55.8506 6.07129 54.0732 6.07129C52.5413 6.07129 50.9756 6.38021 49.376 6.99805C48.2588 7.43815 47.4548 7.99674 46.9639 8.67383C46.71 9.0293 46.583 9.41862 46.583 9.8418C46.583 10.7982 46.9385 11.6022 47.6494 12.2539ZM42.9014 24.1621C43.333 23.7051 43.8408 22.9137 44.4248 21.7881C45.0088 20.654 45.5081 19.6722 45.9229 18.8428C46.3376 18.0133 46.7692 17.1628 47.2178 16.291C47.6748 15.4193 48.1403 14.556 48.6143 13.7012C49.0967 12.8379 49.5833 12.0254 50.0742 11.2637C51.166 9.58789 52.1647 8.41146 53.0703 7.73438C53.1719 7.64974 53.2819 7.60742 53.4004 7.60742C53.5273 7.60742 53.6543 7.62858 53.7812 7.6709C54.0605 7.764 54.306 7.90788 54.5176 8.10254C53.4596 8.94889 52.3678 11.1706 51.2422 14.7676C50.9206 15.7747 50.6074 16.7819 50.3027 17.7891C49.998 18.7878 49.7018 19.7526 49.4141 20.6836C49.1348 21.6146 48.8555 22.4355 48.5762 23.1465C47.9753 24.7122 47.4378 25.4951 46.9639 25.4951C45.4658 25.4951 44.2936 25.1904 43.4473 24.5811C43.2357 24.4287 43.0537 24.2891 42.9014 24.1621ZM64.7754 25C62.9303 25 62.0078 23.9463 62.0078 21.8389C62.0078 20.0531 62.9938 17.7679 64.9658 14.9834C66.7008 12.5374 68.5798 10.4893 70.6025 8.83887C71.8805 7.79785 72.8242 7.27734 73.4336 7.27734C73.8822 7.27734 74.2799 7.4847 74.627 7.89941C75.0078 8.33952 75.1982 8.79232 75.1982 9.25781C75.1982 9.71484 75.0967 10.1296 74.8936 10.502C74.6989 10.8659 74.4323 11.234 74.0938 11.6064C73.7637 11.9788 73.3701 12.347 72.9131 12.7109C72.4645 13.0749 71.9863 13.4176 71.4785 13.7393C70.429 14.4163 69.4007 14.9242 68.3936 15.2627C68.0296 16.0667 67.6699 16.9596 67.3145 17.9414C69.0241 16.401 71.0173 15.3262 73.2939 14.7168C74.0218 14.5221 74.6354 14.4248 75.1348 14.4248C75.6341 14.4248 75.9346 14.5137 76.0361 14.6914C76.1377 14.8607 76.1546 15.0892 76.0869 15.377C76.0277 15.6647 75.9092 15.9906 75.7314 16.3545C75.5537 16.7184 75.3717 17.0951 75.1855 17.4844C74.7201 18.4915 74.4873 19.2109 74.4873 19.6426C74.4873 20.5312 74.7708 20.9756 75.3379 20.9756C75.9642 20.9756 76.6624 20.6921 77.4326 20.125C78.1182 19.6087 78.7191 18.9655 79.2354 18.1953C79.6162 18.1699 79.8066 18.3265 79.8066 18.665C79.8066 18.9359 79.6289 19.376 79.2734 19.9854C78.9264 20.5863 78.5837 21.1068 78.2451 21.5469C77.9066 21.987 77.5257 22.4229 77.1025 22.8545C76.6794 23.2777 76.2266 23.6543 75.7441 23.9844C74.6608 24.7376 73.6198 25.1143 72.6211 25.1143C71.6224 25.1143 70.9115 24.8604 70.4883 24.3525C70.0736 23.8363 69.8662 23.0999 69.8662 22.1436C69.8662 20.9163 70.6068 19.3802 72.0879 17.5352C72.5449 16.9681 72.7438 16.6846 72.6846 16.6846C72.0075 16.6846 70.9792 17.1077 69.5996 17.9541C68.1354 18.8512 67.1029 19.7314 66.502 20.5947C66.1549 21.9574 65.9476 23.2565 65.8799 24.4922C65.8799 24.8307 65.5117 25 64.7754 25ZM69.1045 13.79C70.1963 13.2907 71.1357 12.694 71.9229 12C72.71 11.2891 73.1035 10.6755 73.1035 10.1592C73.1035 9.90527 73.0527 9.67253 72.9512 9.46094C72.8581 9.24089 72.7311 9.13086 72.5703 9.13086C72.418 9.13086 72.2191 9.24512 71.9736 9.47363C71.7282 9.70215 71.4531 10.0195 71.1484 10.4258C70.5052 11.2721 69.8239 12.3936 69.1045 13.79ZM81.6982 25.0635L81.4443 25.0762C80.1071 25.0762 79.0872 24.7461 78.3848 24.0859C77.7246 23.4681 77.3945 22.6302 77.3945 21.5723C77.3945 20.1165 77.9743 18.7243 79.1338 17.3955C80.2594 16.109 81.6263 15.2077 83.2344 14.6914C83.1836 14.3105 83.3232 13.9974 83.6533 13.752C83.8903 13.5742 84.2796 13.4854 84.8213 13.4854C85.3714 13.4854 85.9004 13.5361 86.4082 13.6377C86.916 13.7393 87.4281 13.9635 87.9443 14.3105C89.0615 15.0469 89.6201 16.0371 89.6201 17.2812C89.6201 18.627 89.2858 19.9049 88.6172 21.1152C90.0729 20.8021 91.3467 19.8288 92.4385 18.1953C92.8193 18.1699 93.0098 18.3265 93.0098 18.665C93.0098 18.8005 92.9674 18.9655 92.8828 19.1602C91.7318 21.8939 89.4297 23.7051 85.9766 24.5938C84.7409 24.9154 83.3359 25.0762 81.7617 25.0762L81.6982 25.0635ZM81.4824 19.5029C81.4824 20.4847 81.8929 20.9756 82.7139 20.9756C83.4079 20.9756 84.1061 20.5566 84.8086 19.7188C85.5449 18.847 85.9131 17.9626 85.9131 17.0654C85.9131 16.1514 85.473 15.5462 84.5928 15.25C83.0778 15.6732 82.1087 16.6211 81.6855 18.0938C81.5501 18.5423 81.4824 19.012 81.4824 19.5029ZM96.4502 14.7676C97.5843 14.099 98.6888 13.7646 99.7637 13.7646C101.473 13.7646 102.548 14.4163 102.988 15.7197C103.124 16.1175 103.191 16.6126 103.191 17.2051C103.191 18.4915 102.717 19.8161 101.77 21.1787C102.565 21.0687 103.335 20.7555 104.08 20.2393C104.825 19.7145 105.472 19.0332 106.022 18.1953C106.403 18.1699 106.594 18.3265 106.594 18.665C106.594 18.8005 106.551 18.9655 106.467 19.1602C104.859 23.0618 100.953 25.0127 94.749 25.0127H94.7236C93.5811 25.0127 92.6374 24.6784 91.8926 24.0098C91.0801 23.2734 90.6738 22.2451 90.6738 20.9248C90.6738 19.2998 92.1549 16.363 95.1172 12.1143C96.3698 10.3031 97.4404 8.88965 98.3291 7.87402C98.5745 7.59473 98.9046 7.45508 99.3193 7.45508C99.7764 7.45508 100.111 7.62435 100.322 7.96289C98.5788 10.6966 97.2881 12.9648 96.4502 14.7676ZM95.1426 18.2842C95.0326 18.8174 94.9775 19.266 94.9775 19.6299C94.9775 19.9938 95.0876 20.3027 95.3076 20.5566C95.5277 20.8021 95.8112 20.9248 96.1582 20.9248C96.5137 20.9248 96.8734 20.8656 97.2373 20.7471C97.6012 20.6201 97.9567 20.4508 98.3037 20.2393C98.6507 20.0277 98.9808 19.7822 99.2939 19.5029C99.6071 19.2152 99.8822 18.9062 100.119 18.5762C100.627 17.8652 100.881 17.1924 100.881 16.5576C100.881 16.1514 100.779 15.8424 100.576 15.6309C100.238 15.2754 99.8568 15.0977 99.4336 15.0977C99.0189 15.0977 98.5957 15.1865 98.1641 15.3643C97.7324 15.5335 97.3262 15.7663 96.9453 16.0625C96.1243 16.6803 95.5234 17.4209 95.1426 18.2842ZM114.363 10.9971C114.016 11.1663 113.64 11.2975 113.233 11.3906C112.836 11.4753 112.489 11.5176 112.192 11.5176C111.896 11.5176 111.63 11.4837 111.393 11.416C111.156 11.3398 110.944 11.234 110.758 11.0986C110.352 10.8024 110.148 10.4469 110.148 10.0322C110.148 9.61751 110.22 9.26628 110.364 8.97852C110.517 8.69076 110.732 8.44531 111.012 8.24219C111.613 7.80208 112.332 7.58203 113.17 7.58203C114.016 7.58203 114.63 7.75553 115.011 8.10254C115.4 8.44954 115.595 8.84733 115.595 9.2959C115.595 9.74447 115.476 10.0957 115.239 10.3496C115.002 10.6035 114.71 10.8193 114.363 10.9971ZM104.588 23.5273C104.41 23.1465 104.321 22.681 104.321 22.1309C104.321 21.5723 104.44 20.984 104.677 20.3662C104.922 19.7484 105.231 19.1348 105.604 18.5254C105.984 17.9076 106.408 17.3151 106.873 16.748C107.339 16.1725 107.8 15.6647 108.257 15.2246C109.264 14.2682 110.005 13.79 110.479 13.79C110.682 13.79 110.906 13.8789 111.151 14.0566C111.405 14.2259 111.566 14.3529 111.634 14.4375C110.356 15.8086 109.548 17.1331 109.209 18.4111C109.099 18.8005 109.044 19.1813 109.044 19.5537C109.044 19.9176 109.184 20.2477 109.463 20.5439C109.742 20.8317 110.089 20.9756 110.504 20.9756C110.919 20.9756 111.304 20.8994 111.659 20.7471C112.023 20.5863 112.379 20.3789 112.726 20.125C113.411 19.6087 114.012 18.9655 114.528 18.1953C114.909 18.1699 115.1 18.3265 115.1 18.665C115.1 18.9443 114.922 19.3844 114.566 19.9854C114.219 20.5863 113.872 21.1068 113.525 21.5469C113.178 21.9785 112.781 22.4059 112.332 22.8291C111.892 23.2523 111.41 23.6289 110.885 23.959C109.708 24.7038 108.498 25.0762 107.254 25.0762C105.942 25.0762 105.053 24.5599 104.588 23.5273ZM120.406 22.9688C119.247 24.3229 117.833 25 116.166 25C115.108 25 114.262 24.6826 113.627 24.0479C113.001 23.4215 112.688 22.5964 112.688 21.5723C112.688 20.2773 113.195 19.0205 114.211 17.8018C115.193 16.6169 116.479 15.652 118.07 14.9072C119.721 14.137 121.426 13.752 123.187 13.752C123.855 13.752 124.333 13.8577 124.621 14.0693C124.85 13.7985 125.053 13.6419 125.23 13.5996C125.417 13.5488 125.561 13.5234 125.662 13.5234C125.984 13.5234 126.326 13.57 126.69 13.6631C126.657 13.7731 126.585 13.9635 126.475 14.2344C126.365 14.4967 126.242 14.8099 126.106 15.1738C125.971 15.5378 125.827 15.9355 125.675 16.3672C125.125 17.9076 124.85 19.0628 124.85 19.833C124.85 20.5947 125.091 20.9756 125.573 20.9756C126.2 20.9756 126.898 20.6921 127.668 20.125C128.354 19.6087 128.954 18.9655 129.471 18.1953C129.852 18.1699 130.042 18.3265 130.042 18.665C130.042 18.9528 129.864 19.3929 129.509 19.9854C129.162 20.5778 128.823 21.0898 128.493 21.5215C128.163 21.9531 127.795 22.3763 127.389 22.791C126.982 23.2057 126.551 23.5781 126.094 23.9082C125.07 24.6361 124.071 25 123.098 25C121.862 25 121.033 24.6276 120.609 23.8828C120.474 23.6543 120.406 23.4554 120.406 23.2861C120.406 23.1084 120.406 23.0026 120.406 22.9688ZM116.775 19.5029C116.775 20.4847 117.186 20.9756 118.007 20.9756C118.912 20.9756 119.979 20.2435 121.206 18.7793C121.858 18.0007 122.425 17.2559 122.907 16.5449C123.398 15.834 123.771 15.2923 124.024 14.9199C121.909 14.9368 120.152 15.4193 118.756 16.3672C117.436 17.2643 116.775 18.3096 116.775 19.5029Z"
    fill="#0A0A0A" />
</svg>
