<svg width="36" height="36" viewBox="0 0 36 36" fill="none" xmlns="http://www.w3.org/2000/svg">
  <path
    d="M1.10557 30.7889C1.03614 30.9277 1 31.0808 1 31.2361V31.5C1 32.0523 1.44772 32.5 2 32.5H28C28.5523 32.5 29 32.0523 29 31.5V31.2361C29 31.0808 28.9639 30.9277 28.8944 30.7889L27.2764 27.5528C27.107 27.214 26.7607 27 26.382 27H3.61803C3.23926 27 2.893 27.214 2.72361 27.5528L1.10557 30.7889Z"
    fill="white" />
  <path fill-rule="evenodd" clip-rule="evenodd"
    d="M4 12.9739C4 12.6739 4.13463 12.3899 4.36676 12.1999L15 3.5L18.3817 6.26687C19.0287 6.79619 20 6.3359 20 5.5H24V10.3898C24 10.6897 24.1346 10.9738 24.3668 11.1637L25.6332 12.1999C25.8654 12.3899 26 12.6739 26 12.9739V24C26 24.5523 25.5523 25 25 25H5C4.44772 25 4 24.5523 4 24V12.9739ZM15 16C13.3431 16 12 17.3431 12 19V24H18V19C18 17.3431 16.6569 16 15 16Z"
    fill="white" />
</svg>
