<svg width="184" height="36" viewBox="0 0 184 36" fill="none" xmlns="http://www.w3.org/2000/svg">
  <path
    d="M1.10557 30.7889C1.03614 30.9277 1 31.0808 1 31.2361V31.5C1 32.0523 1.44772 32.5 2 32.5H28C28.5523 32.5 29 32.0523 29 31.5V31.2361C29 31.0808 28.9639 30.9277 28.8944 30.7889L27.2764 27.5528C27.107 27.214 26.7607 27 26.382 27H3.61803C3.23926 27 2.893 27.214 2.72361 27.5528L1.10557 30.7889Z"
    fill="white" />
  <path fill-rule="evenodd" clip-rule="evenodd"
    d="M4 12.9739C4 12.6739 4.13463 12.3899 4.36676 12.1999L15 3.5L18.3817 6.26687C19.0287 6.79619 20 6.3359 20 5.5H24V10.3898C24 10.6897 24.1346 10.9738 24.3668 11.1637L25.6332 12.1999C25.8654 12.3899 26 12.6739 26 12.9739V24C26 24.5523 25.5523 25 25 25H5C4.44772 25 4 24.5523 4 24V12.9739ZM15 16C13.3431 16 12 17.3431 12 19V24H18V19C18 17.3431 16.6569 16 15 16Z"
    fill="white" />
  <path
    d="M45.6195 25V19.224H52.0985V25H54.3785V11.32H52.0985V17.077H45.6195V11.32H43.33V25H45.6195ZM61.1934 25.285C64.2619 25.285 66.3139 23.0715 66.3139 19.87C66.3139 16.697 64.2904 14.455 61.1934 14.455C58.1629 14.455 56.0919 16.6495 56.0919 19.87C56.0919 23.043 58.1059 25.285 61.1934 25.285ZM61.1934 23.138C59.4264 23.138 58.5144 21.865 58.5144 19.87C58.5144 17.932 59.3504 16.602 61.1934 16.602C62.9889 16.602 63.8914 17.8845 63.8914 19.87C63.8914 21.7985 63.0079 23.138 61.1934 23.138ZM70.3165 25V18.6825C70.3165 17.4 71.0765 16.526 72.245 16.526C73.442 16.526 74.1925 17.3715 74.1925 18.7965V25H76.4725V18.6825C76.4725 17.324 77.3085 16.526 78.4105 16.526C79.5885 16.526 80.3485 17.362 80.3485 18.768V25H82.638V18.1885C82.638 15.9655 81.3935 14.4835 79.123 14.4835C77.793 14.4835 76.634 15.101 75.9975 16.1175C75.456 15.12 74.449 14.4835 73.005 14.4835C71.77 14.4835 70.706 15.006 70.0315 15.8515V14.74H68.008V25H70.3165ZM89.2334 25.285C91.2094 25.285 92.9764 24.221 93.7649 22.359L91.5039 21.675C91.0574 22.625 90.2214 23.138 89.1004 23.138C87.5424 23.138 86.6304 22.1975 86.4499 20.5065H93.8789C94.1449 16.811 92.2829 14.455 89.1004 14.455C86.0794 14.455 83.9989 16.621 83.9989 19.984C83.9989 23.1 86.1174 25.285 89.2334 25.285ZM89.1954 16.4595C90.6109 16.4595 91.3614 17.172 91.5609 18.7775H86.5069C86.7729 17.2575 87.6564 16.4595 89.1954 16.4595ZM104.191 25L106.984 15.272L109.777 25H112.038L116.028 11.32H113.625L110.908 21.2L108.181 11.32L105.778 11.339L103.061 21.2L100.334 11.32H97.9308L101.93 25H104.191ZM120.598 25.285C123.667 25.285 125.719 23.0715 125.719 19.87C125.719 16.697 123.695 14.455 120.598 14.455C117.568 14.455 115.497 16.6495 115.497 19.87C115.497 23.043 117.511 25.285 120.598 25.285ZM120.598 23.138C118.831 23.138 117.919 21.865 117.919 19.87C117.919 17.932 118.755 16.602 120.598 16.602C122.394 16.602 123.296 17.8845 123.296 19.87C123.296 21.7985 122.413 23.138 120.598 23.138ZM129.731 25V19.7845C129.731 18.597 130.149 17.6375 131.089 17.1245C131.726 16.754 132.59 16.7065 133.208 16.8775V14.74C132.286 14.5975 131.241 14.759 130.481 15.2815C130.054 15.5475 129.712 15.937 129.455 16.3835V14.74H127.432V25H129.731ZM136.959 25V20.06L140.882 25H143.913L139.59 19.87L143.571 14.74H140.711L136.959 19.68V11.32H134.641L134.622 25H136.959Z"
    fill="white" />
</svg>
