<svg width="184" height="36" viewBox="0 0 184 36" fill="none" xmlns="http://www.w3.org/2000/svg">
  <rect y="3" width="30" height="30" rx="8" fill="white" />
  <path fill-rule="evenodd" clip-rule="evenodd"
    d="M16.8978 24.5245C18.0241 24.1337 18.9697 23.4994 19.7122 22.7122C20.4994 21.9698 21.1337 21.0241 21.5245 19.8978L24.5 8.5L13.1022 11.4755C11.9759 11.8663 11.0302 12.5006 10.2878 13.2878C9.50061 14.0302 8.8663 14.9759 8.47549 16.1022L5.5 27.5L16.8978 24.5245ZM18 15.5C18 14.9477 17.5523 14.5 17 14.5C16.4477 14.5 16 14.9477 16 15.5V17.6492L14.6713 15.9883C13.7855 14.8811 12 15.5075 12 16.9254V20.5C12 21.0523 12.4477 21.5 13 21.5C13.5523 21.5 14 21.0523 14 20.5V18.3508L15.3287 20.0117C16.2145 21.1189 18 20.4925 18 19.0746V15.5Z"
    fill="#0A0A0A" />
  <path
    d="M43.207 24V12.661H45.553L51.384 20.515L50.568 22.215V12.661H53.101V24H51.027L45.094 16.248L45.74 15.007V24H43.207ZM58.9598 24.255C57.5091 24.255 56.4154 23.8697 55.6788 23.099C54.9534 22.317 54.5908 21.1723 54.5908 19.665C54.5908 18.0443 54.9591 16.8827 55.6958 16.18C56.4438 15.466 57.5318 15.109 58.9598 15.109C59.9231 15.109 60.7278 15.2733 61.3738 15.602C62.0311 15.9193 62.5241 16.4123 62.8528 17.081C63.1928 17.7497 63.3628 18.611 63.3628 19.665C63.3628 21.1723 62.9831 22.317 62.2238 23.099C61.4644 23.8697 60.3764 24.255 58.9598 24.255ZM58.9598 22.232C59.3791 22.232 59.7248 22.1357 59.9968 21.943C60.2801 21.739 60.4898 21.45 60.6258 21.076C60.7731 20.6907 60.8468 20.2203 60.8468 19.665C60.8468 19.0303 60.7731 18.5317 60.6258 18.169C60.4898 17.795 60.2801 17.5287 59.9968 17.37C59.7134 17.2 59.3678 17.115 58.9598 17.115C58.5291 17.115 58.1778 17.2 57.9058 17.37C57.6338 17.54 57.4298 17.812 57.2938 18.186C57.1691 18.5487 57.1068 19.0417 57.1068 19.665C57.1068 20.5263 57.2541 21.1723 57.5488 21.603C57.8548 22.0223 58.3251 22.232 58.9598 22.232ZM64.7711 24V16.299C64.9298 16.163 65.2131 16.01 65.6211 15.84C66.0291 15.6587 66.4938 15.5 67.0151 15.364C67.5478 15.2167 68.0804 15.143 68.6131 15.143C69.1458 15.143 69.5651 15.1827 69.8711 15.262C70.1771 15.3413 70.4094 15.4433 70.5681 15.568V17.421C70.3754 17.3757 70.1318 17.3417 69.8371 17.319C69.5424 17.2963 69.2364 17.285 68.9191 17.285C68.6018 17.2737 68.3014 17.2737 68.0181 17.285C67.7348 17.2963 67.4968 17.319 67.3041 17.353V24H64.7711ZM75.2216 24.34C74.2243 24.34 73.4819 24.1077 72.9946 23.643C72.5073 23.167 72.2636 22.4983 72.2636 21.637V17.336H71.0056V15.398H72.2636V13.035H74.9156V15.398H76.8026V17.336H74.9156V21.314C74.9156 21.6087 74.9779 21.8297 75.1026 21.977C75.2273 22.113 75.4369 22.181 75.7316 22.181C75.9016 22.181 76.0886 22.147 76.2926 22.079C76.4966 22.011 76.6666 21.926 76.8026 21.824V24C76.5646 24.1247 76.3039 24.2097 76.0206 24.255C75.7486 24.3117 75.4823 24.34 75.2216 24.34ZM78.385 24V11.998H80.935V17.098L79.864 16.52C80.3174 16.1233 80.85 15.8003 81.462 15.551C82.0854 15.2903 82.72 15.16 83.366 15.16C83.9894 15.16 84.539 15.262 85.015 15.466C85.491 15.67 85.8594 16.0043 86.12 16.469C86.392 16.9223 86.528 17.5513 86.528 18.356V24H83.995V18.883C83.995 18.3163 83.8534 17.9083 83.57 17.659C83.298 17.3983 82.8957 17.268 82.363 17.268C82.091 17.268 81.819 17.3077 81.547 17.387C81.2864 17.455 81.0824 17.5457 80.935 17.659L80.901 24H78.385ZM91.8949 24L96.1789 12.661H99.1879L103.2 24H100.378L96.7569 13.307L98.0999 13.188L94.4959 24H91.8949ZM94.3089 21.552L94.8699 19.529H100.021L100.276 21.552H94.3089ZM108.141 24.255C107.472 24.255 106.855 24.1813 106.288 24.034C105.733 23.8867 105.251 23.643 104.843 23.303C104.435 22.9517 104.112 22.4757 103.874 21.875C103.647 21.2743 103.534 20.5263 103.534 19.631C103.534 18.237 103.874 17.1377 104.554 16.333C105.245 15.5283 106.277 15.126 107.648 15.126C107.829 15.126 108.067 15.143 108.362 15.177C108.657 15.1997 108.963 15.2677 109.28 15.381C109.597 15.4943 109.881 15.687 110.13 15.959L109.62 16.741V11.862H112.136V21.756C112.136 22.1753 112.023 22.5437 111.796 22.861C111.569 23.167 111.263 23.422 110.878 23.626C110.504 23.83 110.079 23.983 109.603 24.085C109.127 24.1983 108.64 24.255 108.141 24.255ZM108.243 22.13C108.651 22.13 108.98 22.079 109.229 21.977C109.49 21.8637 109.62 21.6993 109.62 21.484V17.523C109.416 17.4097 109.195 17.3247 108.957 17.268C108.73 17.2 108.509 17.166 108.294 17.166C107.818 17.166 107.416 17.2453 107.087 17.404C106.758 17.5627 106.509 17.829 106.339 18.203C106.18 18.577 106.101 19.0813 106.101 19.716C106.101 20.2147 106.169 20.6453 106.305 21.008C106.441 21.3593 106.662 21.637 106.968 21.841C107.285 22.0337 107.71 22.13 108.243 22.13ZM116.92 24L113.333 15.398H116.087L118.688 22.028L118.076 22.045L120.388 15.398H123.057L119.47 24H116.92ZM127.627 24.255C126.766 24.255 126.001 24.0793 125.332 23.728C124.675 23.3653 124.159 22.8553 123.785 22.198C123.422 21.5293 123.241 20.736 123.241 19.818C123.241 18.322 123.609 17.166 124.346 16.35C125.094 15.5227 126.159 15.109 127.542 15.109C128.494 15.109 129.259 15.313 129.837 15.721C130.426 16.129 130.857 16.724 131.129 17.506C131.401 18.288 131.531 19.24 131.52 20.362H124.975L124.703 18.747H129.429L129.055 19.546C129.044 18.628 128.913 17.982 128.664 17.608C128.415 17.234 128.007 17.047 127.44 17.047C127.123 17.047 126.834 17.1263 126.573 17.285C126.324 17.4437 126.125 17.71 125.978 18.084C125.842 18.4467 125.774 18.951 125.774 19.597C125.774 20.413 125.967 21.042 126.352 21.484C126.749 21.926 127.378 22.147 128.239 22.147C128.556 22.147 128.868 22.113 129.174 22.045C129.491 21.9657 129.786 21.875 130.058 21.773C130.33 21.671 130.562 21.5803 130.755 21.501V23.677C130.347 23.847 129.888 23.983 129.378 24.085C128.879 24.1983 128.296 24.255 127.627 24.255ZM132.94 16.129C133.155 16.0157 133.438 15.9023 133.79 15.789C134.141 15.6643 134.526 15.5567 134.946 15.466C135.365 15.3753 135.784 15.3017 136.204 15.245C136.634 15.1883 137.031 15.16 137.394 15.16C138.164 15.16 138.822 15.262 139.366 15.466C139.91 15.6587 140.323 15.976 140.607 16.418C140.901 16.86 141.049 17.4607 141.049 18.22V24H138.516V18.73C138.516 18.5147 138.482 18.3163 138.414 18.135C138.357 17.9537 138.266 17.8007 138.142 17.676C138.017 17.54 137.847 17.438 137.632 17.37C137.416 17.2907 137.156 17.251 136.85 17.251C136.589 17.251 136.328 17.285 136.068 17.353C135.807 17.4097 135.609 17.472 135.473 17.54V24H132.94V16.129ZM146.478 24.34C145.481 24.34 144.738 24.1077 144.251 23.643C143.764 23.167 143.52 22.4983 143.52 21.637V17.336H142.262V15.398H143.52V13.035H146.172V15.398H148.059V17.336H146.172V21.314C146.172 21.6087 146.234 21.8297 146.359 21.977C146.484 22.113 146.693 22.181 146.988 22.181C147.158 22.181 147.345 22.147 147.549 22.079C147.753 22.011 147.923 21.926 148.059 21.824V24C147.821 24.1247 147.56 24.2097 147.277 24.255C147.005 24.3117 146.739 24.34 146.478 24.34ZM153.688 24.255C152.894 24.255 152.192 24.1303 151.58 23.881C150.968 23.6317 150.492 23.252 150.152 22.742C149.812 22.2207 149.642 21.5463 149.642 20.719V15.398H152.175V20.515C152.175 21.059 152.294 21.467 152.532 21.739C152.781 21.9997 153.172 22.13 153.705 22.13C154.249 22.13 154.64 21.9997 154.878 21.739C155.116 21.467 155.235 21.059 155.235 20.515V15.398H157.615V20.719C157.615 21.943 157.263 22.8383 156.561 23.405C155.858 23.9717 154.9 24.255 153.688 24.255ZM159.512 24V16.299C159.67 16.163 159.954 16.01 160.362 15.84C160.77 15.6587 161.234 15.5 161.756 15.364C162.288 15.2167 162.821 15.143 163.354 15.143C163.886 15.143 164.306 15.1827 164.612 15.262C164.918 15.3413 165.15 15.4433 165.309 15.568V17.421C165.116 17.3757 164.872 17.3417 164.578 17.319C164.283 17.2963 163.977 17.285 163.66 17.285C163.342 17.2737 163.042 17.2737 162.759 17.285C162.475 17.2963 162.237 17.319 162.045 17.353V24H159.512ZM170.037 24.255C169.176 24.255 168.411 24.0793 167.742 23.728C167.085 23.3653 166.569 22.8553 166.195 22.198C165.833 21.5293 165.651 20.736 165.651 19.818C165.651 18.322 166.02 17.166 166.756 16.35C167.504 15.5227 168.57 15.109 169.952 15.109C170.904 15.109 171.669 15.313 172.247 15.721C172.837 16.129 173.267 16.724 173.539 17.506C173.811 18.288 173.942 19.24 173.93 20.362H167.385L167.113 18.747H171.839L171.465 19.546C171.454 18.628 171.324 17.982 171.074 17.608C170.825 17.234 170.417 17.047 169.85 17.047C169.533 17.047 169.244 17.1263 168.983 17.285C168.734 17.4437 168.536 17.71 168.388 18.084C168.252 18.4467 168.184 18.951 168.184 19.597C168.184 20.413 168.377 21.042 168.762 21.484C169.159 21.926 169.788 22.147 170.649 22.147C170.967 22.147 171.278 22.113 171.584 22.045C171.902 21.9657 172.196 21.875 172.468 21.773C172.74 21.671 172.973 21.5803 173.165 21.501V23.677C172.757 23.847 172.298 23.983 171.788 24.085C171.29 24.1983 170.706 24.255 170.037 24.255ZM177.9 24.255C177.288 24.255 176.761 24.187 176.319 24.051C175.888 23.9263 175.48 23.7847 175.095 23.626V21.399C175.333 21.5577 175.599 21.722 175.894 21.892C176.189 22.0507 176.512 22.181 176.863 22.283C177.226 22.385 177.605 22.436 178.002 22.436C178.41 22.436 178.693 22.368 178.852 22.232C179.022 22.0847 179.107 21.909 179.107 21.705C179.107 21.5123 179.022 21.3593 178.852 21.246C178.682 21.1213 178.461 21.0193 178.189 20.94C177.917 20.8607 177.628 20.787 177.322 20.719C177.05 20.6623 176.778 20.5773 176.506 20.464C176.234 20.3393 175.99 20.175 175.775 19.971C175.56 19.767 175.384 19.5177 175.248 19.223C175.123 18.917 175.061 18.5487 175.061 18.118C175.061 17.5627 175.169 17.1037 175.384 16.741C175.599 16.367 175.883 16.0667 176.234 15.84C176.585 15.6133 176.965 15.4547 177.373 15.364C177.781 15.262 178.178 15.2167 178.563 15.228C179.266 15.2507 179.821 15.33 180.229 15.466C180.648 15.5907 181.028 15.755 181.368 15.959V17.948C180.983 17.7327 180.597 17.5343 180.212 17.353C179.838 17.1603 179.407 17.064 178.92 17.064C178.478 17.064 178.161 17.132 177.968 17.268C177.775 17.404 177.679 17.5853 177.679 17.812C177.679 18.0273 177.741 18.1973 177.866 18.322C178.002 18.4467 178.178 18.5487 178.393 18.628C178.608 18.696 178.846 18.764 179.107 18.832C179.39 18.9 179.679 18.985 179.974 19.087C180.28 19.1777 180.563 19.3137 180.824 19.495C181.096 19.665 181.311 19.9087 181.47 20.226C181.64 20.532 181.725 20.94 181.725 21.45C181.714 22.1413 181.527 22.6967 181.164 23.116C180.801 23.524 180.331 23.8187 179.753 24C179.186 24.17 178.569 24.255 177.9 24.255Z"
    fill="white" />
</svg>
