<svg width="36" height="36" viewBox="0 0 36 36" fill="none" xmlns="http://www.w3.org/2000/svg">
  <rect y="3" width="30" height="30" rx="8" fill="white" />
  <path fill-rule="evenodd" clip-rule="evenodd"
    d="M16.8978 24.5245C18.0241 24.1337 18.9697 23.4994 19.7122 22.7122C20.4994 21.9698 21.1337 21.0241 21.5245 19.8978L24.5 8.5L13.1022 11.4755C11.9759 11.8663 11.0302 12.5006 10.2878 13.2878C9.50061 14.0302 8.8663 14.9759 8.47549 16.1022L5.5 27.5L16.8978 24.5245ZM18 15.5C18 14.9477 17.5523 14.5 17 14.5C16.4477 14.5 16 14.9477 16 15.5V17.6492L14.6713 15.9883C13.7855 14.8811 12 15.5075 12 16.9254V20.5C12 21.0523 12.4477 21.5 13 21.5C13.5523 21.5 14 21.0523 14 20.5V18.3508L15.3287 20.0117C16.2145 21.1189 18 20.4925 18 19.0746V15.5Z"
    fill="#0A0A0A" />
</svg>
