<svg width="36" height="36" viewBox="0 0 36 36" fill="none" xmlns="http://www.w3.org/2000/svg">
  <rect y="3" width="30" height="30" rx="12" fill="#0A0A0A" />
  <path
    d="M11.5 10H16.5C18.7091 10 20.5 11.7909 20.5 14C20.5 14.805 20.4336 15.5545 20.2282 16.1821C19.9 17.1849 18.7594 17.5 17.7041 17.5H16.5C15.6716 17.5 15 16.8284 15 16C15 15.7239 14.7761 15.5 14.5 15.5C14.2239 15.5 14 15.7239 14 16C14 16.8284 13.3284 17.5 12.5 17.5C12.2239 17.5 12 17.7239 12 18C12 18.2761 12.2239 18.5 12.5 18.5C13.3284 18.5 14 19.1716 14 20C14 20.2761 14.2239 20.5 14.5 20.5C14.7761 20.5 15 20.2761 15 20C15 19.1716 15.6716 18.5 16.5 18.5H17.7041C18.7594 18.5 19.9 18.8151 20.2282 19.8179C20.4336 20.4455 20.5 21.195 20.5 22C20.5 24.2091 18.7091 26 16.5 26H11.5C10.3954 26 9.5 25.1046 9.5 24V12C9.5 10.8954 10.3954 10 11.5 10Z"
    fill="white" />
</svg>
