<svg width="36" height="36" viewBox="0 0 36 36" fill="none" xmlns="http://www.w3.org/2000/svg">
  <circle cx="15" cy="18" r="15" fill="white" />
  <path
    d="M15 15.3636C15 11.8491 12.0899 9 8.5 9V16.6364C8.5 20.1509 11.4101 23 15 23C18.5898 23 21.5 20.1509 21.5 16.6364V9C17.9101 9 15 11.8491 15 15.3636Z"
    fill="#0A0A0A" />
  <path d="M19 25V25C16.7909 25 15 26.7909 15 29V29V29C17.2091 29 19 27.2091 19 25V25Z" fill="#0A0A0A" />
  <path d="M11 25V25C13.2091 25 15 26.7909 15 29V29V29C12.7909 29 11 27.2091 11 25V25Z" fill="#0A0A0A" />
</svg>
