<svg width="184" height="36" viewBox="0 0 184 36" fill="none" xmlns="http://www.w3.org/2000/svg">
  <circle cx="15" cy="18" r="15" fill="#0A0A0A" />
  <path d="M8.5 10H19.5L21.5 12L19.5 14H8.5V10Z" fill="white" />
  <path d="M8.5 16H15.5L17.5 18L15.5 20H8.5V16Z" fill="white" />
  <rect x="8.5" y="22" width="4" height="4" fill="white" />
  <path
    d="M43.3629 25V11.1818H52.2152V13.2802H45.8661V17.0316H51.608V19.13H45.8661V25H43.3629ZM56.8973 25.2092C56.2405 25.2092 55.649 25.0922 55.1228 24.8583C54.601 24.6199 54.1871 24.2691 53.8813 23.8058C53.5799 23.3424 53.4292 22.7712 53.4292 22.092C53.4292 21.5072 53.5372 21.0237 53.7531 20.6413C53.969 20.259 54.2636 19.9531 54.637 19.7237C55.0103 19.4943 55.4309 19.3211 55.8987 19.2042C56.371 19.0827 56.859 18.995 57.3628 18.9411C57.9701 18.8781 58.4626 18.8219 58.8404 18.7724C59.2183 18.7184 59.4927 18.6374 59.6636 18.5295C59.839 18.417 59.9267 18.2438 59.9267 18.0099V17.9695C59.9267 17.4612 59.776 17.0676 59.4747 16.7887C59.1733 16.5098 58.7392 16.3704 58.1725 16.3704C57.5742 16.3704 57.0997 16.5008 56.7488 16.7617C56.4025 17.0226 56.1686 17.3307 56.0471 17.6861L53.7666 17.3622C53.9465 16.7325 54.2434 16.2062 54.6572 15.7834C55.071 15.3561 55.5771 15.0367 56.1753 14.8253C56.7736 14.6094 57.4348 14.5014 58.159 14.5014C58.6583 14.5014 59.1553 14.5599 59.6501 14.6768C60.1449 14.7938 60.5969 14.9872 61.0063 15.2571C61.4156 15.5225 61.744 15.8846 61.9914 16.3434C62.2433 16.8022 62.3692 17.3757 62.3692 18.0639V25H60.0212V23.5763H59.9402C59.7918 23.8642 59.5826 24.1341 59.3127 24.386C59.0473 24.6334 58.7122 24.8336 58.3074 24.9865C57.9071 25.1349 57.437 25.2092 56.8973 25.2092ZM57.5315 23.4144C58.0218 23.4144 58.4469 23.3177 58.8067 23.1243C59.1665 22.9264 59.4432 22.6655 59.6366 22.3416C59.8345 22.0178 59.9335 21.6647 59.9335 21.2823V20.0611C59.857 20.1241 59.7266 20.1825 59.5421 20.2365C59.3622 20.2905 59.1598 20.3377 58.9349 20.3782C58.71 20.4187 58.4873 20.4547 58.2669 20.4862C58.0465 20.5176 57.8554 20.5446 57.6934 20.5671C57.3291 20.6166 57.003 20.6976 56.7151 20.81C56.4272 20.9225 56.2 21.0799 56.0336 21.2823C55.8672 21.4802 55.784 21.7366 55.784 22.0515C55.784 22.5013 55.9482 22.8409 56.2765 23.0703C56.6049 23.2997 57.0232 23.4144 57.5315 23.4144ZM64.4452 25V14.6364H66.7797V16.3974H66.9011C67.117 15.8036 67.4746 15.3403 67.9739 15.0075C68.4732 14.6701 69.0692 14.5014 69.7619 14.5014C70.4636 14.5014 71.0551 14.6723 71.5364 15.0142C72.0222 15.3516 72.3641 15.8126 72.562 16.3974H72.67C72.8994 15.8216 73.2862 15.3628 73.8305 15.021C74.3792 14.6746 75.0292 14.5014 75.7804 14.5014C76.734 14.5014 77.5122 14.8028 78.1149 15.4055C78.7177 16.0083 79.019 16.8877 79.019 18.0437V25H76.5698V18.4215C76.5698 17.7783 76.3989 17.3082 76.057 17.0114C75.7152 16.71 75.2968 16.5593 74.8021 16.5593C74.2128 16.5593 73.7517 16.7437 73.4189 17.1126C73.0905 17.4769 72.9263 17.9515 72.9263 18.5362V25H70.5311V18.3203C70.5311 17.785 70.3692 17.3577 70.0453 17.0384C69.7259 16.719 69.3076 16.5593 68.7903 16.5593C68.4395 16.5593 68.1201 16.6493 67.8322 16.8292C67.5444 17.0046 67.315 17.2543 67.144 17.5781C66.9731 17.8975 66.8876 18.2708 66.8876 18.6982V25H64.4452ZM81.1169 25V14.6364H83.5594V25H81.1169ZM82.3449 13.1655C81.9581 13.1655 81.6252 13.0373 81.3463 12.7809C81.0674 12.52 80.928 12.2074 80.928 11.843C80.928 11.4742 81.0674 11.1616 81.3463 10.9052C81.6252 10.6443 81.9581 10.5138 82.3449 10.5138C82.7362 10.5138 83.0691 10.6443 83.3435 10.9052C83.6224 11.1616 83.7618 11.4742 83.7618 11.843C83.7618 12.2074 83.6224 12.52 83.3435 12.7809C83.0691 13.0373 82.7362 13.1655 82.3449 13.1655ZM88.1335 11.1818V25H85.691V11.1818H88.1335ZM91.7832 28.8864C91.4504 28.8864 91.1423 28.8594 90.8589 28.8054C90.58 28.7559 90.3573 28.6974 90.1909 28.63L90.7577 26.7273C91.113 26.8307 91.4301 26.8802 91.709 26.8757C91.9879 26.8712 92.233 26.7835 92.4445 26.6126C92.6604 26.4461 92.8425 26.1673 92.991 25.7759L93.2001 25.2159L89.442 14.6364H92.0329L94.4214 22.4631H94.5293L96.9246 14.6364H99.5222L95.3727 26.255C95.1793 26.8037 94.9229 27.2738 94.6035 27.6651C94.2842 28.061 93.8928 28.3623 93.4295 28.5692C92.9707 28.7807 92.422 28.8864 91.7832 28.8864ZM103.937 25L106.231 11.1818H115.947L115.434 14.2045H109.47L109.092 16.5795H114.463L113.95 19.6023H108.579L107.689 25H103.937ZM121.533 20.4659L122.505 14.6364H126.229L124.502 25H120.967L121.291 23.0298H121.183C120.863 23.6911 120.386 24.2083 119.752 24.5817C119.122 24.9505 118.421 25.1349 117.647 25.1349C116.923 25.1349 116.318 24.9685 115.832 24.6357C115.346 24.3028 115.002 23.844 114.8 23.2592C114.597 22.6745 114.557 22.0043 114.678 21.2486L115.785 14.6364H119.509L118.538 20.4659C118.461 20.9787 118.526 21.3813 118.733 21.6737C118.945 21.966 119.284 22.1122 119.752 22.1122C120.063 22.1122 120.341 22.047 120.589 21.9165C120.841 21.7816 121.048 21.5927 121.21 21.3498C121.376 21.1024 121.484 20.8078 121.533 20.4659ZM130.739 19.1705L129.768 25H126.043L127.771 14.6364H131.306L130.982 16.6065H131.09C131.419 15.9453 131.898 15.4303 132.527 15.0614C133.162 14.6881 133.861 14.5014 134.626 14.5014C135.359 14.5014 135.968 14.6679 136.454 15.0007C136.94 15.3336 137.284 15.7924 137.487 16.3771C137.689 16.9619 137.725 17.6321 137.595 18.3878L136.488 25H132.764L133.735 19.1705C133.821 18.6577 133.758 18.2551 133.546 17.9627C133.339 17.6703 132.997 17.5241 132.521 17.5241C132.219 17.5241 131.943 17.5916 131.691 17.7266C131.443 17.857 131.236 18.0459 131.07 18.2933C130.908 18.5362 130.798 18.8286 130.739 19.1705ZM141.658 25.1349C140.92 25.1349 140.272 24.9415 139.714 24.5547C139.161 24.1679 138.763 23.5808 138.52 22.7937C138.282 22.0065 138.261 21.0147 138.459 19.8182C138.666 18.5677 139.028 17.5511 139.546 16.7685C140.067 15.9858 140.666 15.4123 141.34 15.0479C142.02 14.6836 142.701 14.5014 143.385 14.5014C143.898 14.5014 144.332 14.5914 144.687 14.7713C145.047 14.9467 145.333 15.1829 145.544 15.4798C145.755 15.7721 145.899 16.0937 145.976 16.4446H146.03L146.907 11.1818H150.631L148.337 25H144.64L144.923 23.2997H144.842C144.64 23.6506 144.381 23.9654 144.066 24.2443C143.756 24.5187 143.398 24.7369 142.993 24.8988C142.589 25.0562 142.143 25.1349 141.658 25.1349ZM143.506 22.2741C143.848 22.2741 144.159 22.1752 144.437 21.9773C144.716 21.7749 144.952 21.4915 145.146 21.1271C145.339 20.7583 145.476 20.322 145.557 19.8182C145.643 19.3054 145.65 18.8668 145.578 18.5025C145.506 18.1336 145.362 17.8525 145.146 17.6591C144.934 17.4612 144.658 17.3622 144.316 17.3622C143.974 17.3622 143.666 17.4612 143.392 17.6591C143.117 17.8525 142.886 18.1336 142.697 18.5025C142.512 18.8668 142.377 19.3054 142.292 19.8182C142.206 20.331 142.195 20.7718 142.258 21.1406C142.326 21.505 142.465 21.7861 142.676 21.984C142.888 22.1774 143.164 22.2741 143.506 22.2741Z"
    fill="#0A0A0A" />
</svg>
