<svg width="36" height="36" viewBox="0 0 36 36" fill="none" xmlns="http://www.w3.org/2000/svg">
  <circle cx="15" cy="18" r="15" fill="white" />
  <path
    d="M7 15.154C7 14.7567 7.23519 14.3971 7.59918 14.2379L15 11L22.4008 14.2379C22.7648 14.3971 23 14.7567 23 15.154V21.3944C23 22.3975 22.4943 23.3355 21.5706 23.7267C20.2201 24.2988 17.9607 25 15 25C12.0393 25 9.77993 24.2988 8.42936 23.7267C7.50573 23.3355 7 22.3975 7 21.3944V15.154Z"
    fill="#0A0A0A" />
  <path d="M11 18C11 18 12 20.5 15 20.5C18 20.5 19 18 19 18" stroke="white" stroke-linecap="round"
    stroke-linejoin="round" />
</svg>
