<svg width="184" height="36" viewBox="0 0 184 36" fill="none" xmlns="http://www.w3.org/2000/svg">
  <rect y="3" width="30" height="30" rx="12" fill="#0A0A0A" />
  <path
    d="M11.5 10H16.5C18.7091 10 20.5 11.7909 20.5 14C20.5 14.805 20.4336 15.5545 20.2282 16.1821C19.9 17.1849 18.7594 17.5 17.7041 17.5H16.5C15.6716 17.5 15 16.8284 15 16C15 15.7239 14.7761 15.5 14.5 15.5C14.2239 15.5 14 15.7239 14 16C14 16.8284 13.3284 17.5 12.5 17.5C12.2239 17.5 12 17.7239 12 18C12 18.2761 12.2239 18.5 12.5 18.5C13.3284 18.5 14 19.1716 14 20C14 20.2761 14.2239 20.5 14.5 20.5C14.7761 20.5 15 20.2761 15 20C15 19.1716 15.6716 18.5 16.5 18.5H17.7041C18.7594 18.5 19.9 18.8151 20.2282 19.8179C20.4336 20.4455 20.5 21.195 20.5 22C20.5 24.2091 18.7091 26 16.5 26H11.5C10.3954 26 9.5 25.1046 9.5 24V12C9.5 10.8954 10.3954 10 11.5 10Z"
    fill="white" />
  <path
    d="M44.21 25V11.4H48.052C49.4347 11.4 50.517 11.7287 51.299 12.386C52.0923 13.032 52.489 13.9273 52.489 15.072C52.489 15.752 52.3077 16.3413 51.945 16.84C51.5823 17.3273 51.078 17.6673 50.432 17.86V18.115C51.1573 18.3303 51.7183 18.7157 52.115 19.271C52.5117 19.8263 52.71 20.5007 52.71 21.294C52.71 22.45 52.2963 23.3567 51.469 24.014C50.6417 24.6713 49.5027 25 48.052 25H44.21ZM45.91 23.436H48.052C49.0153 23.436 49.7463 23.2377 50.245 22.841C50.755 22.433 51.01 21.872 51.01 21.158C51.01 20.4213 50.755 19.8547 50.245 19.458C49.7463 19.0613 49.0153 18.863 48.052 18.863H45.91V23.436ZM45.91 17.384H48.052C48.9587 17.384 49.65 17.197 50.126 16.823C50.6133 16.4377 50.857 15.888 50.857 15.174C50.857 14.4713 50.619 13.9273 50.143 13.542C49.667 13.1567 48.97 12.964 48.052 12.964H45.91V17.384ZM55.2123 14.834H59.0543V15.616H59.5303C59.7457 15.2873 60.029 15.0323 60.3803 14.851C60.743 14.6697 61.1567 14.579 61.6213 14.579C62.4487 14.579 63.0947 14.8567 63.5593 15.412C64.0353 15.9673 64.2733 16.738 64.2733 17.724V19.22H62.5733V17.979C62.5733 16.7437 62.069 16.126 61.0603 16.126C60.4143 16.126 59.9327 16.4037 59.6153 16.959C59.298 17.503 59.1393 18.319 59.1393 19.407V23.47H62.4203V25H55.5523V23.47H57.5073V16.364H55.2123V14.834ZM67.6936 14.834H72.4196V23.47H75.5136V25H67.6936V23.47H70.7876V16.364H67.6936V14.834ZM71.4676 13.253C71.071 13.253 70.7593 13.1397 70.5326 12.913C70.306 12.6863 70.1926 12.369 70.1926 11.961C70.1926 11.5643 70.306 11.2583 70.5326 11.043C70.7593 10.8163 71.071 10.703 71.4676 10.703C71.8643 10.703 72.176 10.8163 72.4026 11.043C72.6293 11.2583 72.7426 11.57 72.7426 11.978C72.7426 12.3747 72.6293 12.6863 72.4026 12.913C72.176 13.1397 71.8643 13.253 71.4676 13.253ZM86.737 24.711C86.737 25.527 86.5613 26.2297 86.21 26.819C85.87 27.4083 85.377 27.8617 84.731 28.179C84.085 28.4963 83.303 28.655 82.385 28.655C81.5576 28.655 80.8266 28.5247 80.192 28.264C79.5573 28.0147 79.0586 27.6463 78.696 27.159C78.3333 26.683 78.1293 26.1163 78.084 25.459H79.648C79.8066 26.003 80.124 26.4223 80.6 26.717C81.0873 27.023 81.6823 27.176 82.385 27.176C83.2463 27.176 83.915 26.9493 84.391 26.496C84.867 26.054 85.105 25.4307 85.105 24.626V23.385H84.629C84.4023 23.7363 84.0623 24.014 83.609 24.218C83.1556 24.422 82.6683 24.524 82.147 24.524C81.3196 24.524 80.6 24.3257 79.988 23.929C79.3873 23.521 78.9226 22.9487 78.594 22.212C78.2653 21.464 78.101 20.5857 78.101 19.577C78.101 18.5457 78.2653 17.6617 78.594 16.925C78.9226 16.177 79.3873 15.599 79.988 15.191C80.6 14.783 81.3196 14.579 82.147 14.579C82.6796 14.579 83.167 14.6867 83.609 14.902C84.0623 15.1173 84.4023 15.4063 84.629 15.769H85.105V14.834H86.737V24.711ZM79.733 19.577C79.733 20.6763 79.971 21.532 80.447 22.144C80.9343 22.7447 81.6086 23.045 82.47 23.045C83.3313 23.045 84 22.7447 84.476 22.144C84.9633 21.532 85.207 20.6763 85.207 19.577C85.207 18.4777 84.9633 17.6277 84.476 17.027C84 16.415 83.3313 16.109 82.47 16.109C81.6086 16.109 80.9343 16.415 80.447 17.027C79.971 17.6277 79.733 18.4777 79.733 19.577ZM90.2933 25V10.584H91.9253V15.65H92.4013C92.6619 15.31 93.0019 15.0493 93.4213 14.868C93.8406 14.6753 94.2996 14.579 94.7983 14.579C95.5236 14.579 96.1469 14.7377 96.6683 15.055C97.1896 15.3723 97.5919 15.82 97.8753 16.398C98.1699 16.9647 98.3173 17.639 98.3173 18.421V25H96.6853V18.863C96.6853 17.979 96.4813 17.3047 96.0733 16.84C95.6653 16.3753 95.0759 16.143 94.3053 16.143C93.5346 16.143 92.9453 16.3753 92.5373 16.84C92.1293 17.3047 91.9253 17.979 91.9253 18.863V25H90.2933ZM105.172 12.25V14.834H109.813V16.364H105.172V21.719C105.172 22.3763 105.308 22.875 105.58 23.215C105.852 23.555 106.248 23.725 106.77 23.725C107.314 23.725 107.739 23.5437 108.045 23.181C108.351 22.807 108.56 22.246 108.674 21.498H110.136C110.079 22.722 109.756 23.657 109.167 24.303C108.577 24.9377 107.756 25.255 106.702 25.255C105.693 25.255 104.911 24.9547 104.356 24.354C103.812 23.742 103.54 22.8807 103.54 21.77V16.364H101.228V14.834H103.54V12.25H105.172ZM112.689 25V11.4H118.027C119.002 11.4 119.846 11.5813 120.56 11.944C121.274 12.2953 121.829 12.794 122.226 13.44C122.623 14.086 122.821 14.8567 122.821 15.752C122.821 16.602 122.623 17.3443 122.226 17.979C121.829 18.6023 121.274 19.084 120.56 19.424C119.846 19.764 119.002 19.934 118.027 19.934H115.885V25H112.689ZM115.885 17.061H118.027C118.537 17.061 118.928 16.9477 119.2 16.721C119.483 16.4943 119.625 16.1657 119.625 15.735C119.625 15.3157 119.483 14.9927 119.2 14.766C118.928 14.528 118.537 14.409 118.027 14.409H115.885V17.061ZM130.627 18.319V20.495L128.315 20.852C128.009 20.8973 127.76 21.0107 127.567 21.192C127.375 21.362 127.278 21.583 127.278 21.855C127.278 22.1497 127.369 22.382 127.55 22.552C127.743 22.7107 128.026 22.79 128.4 22.79C128.797 22.79 129.148 22.7107 129.454 22.552C129.76 22.3933 130.004 22.1837 130.185 21.923C130.367 21.651 130.457 21.3507 130.457 21.022V18.37C130.457 17.8147 130.321 17.401 130.049 17.129C129.777 16.857 129.352 16.721 128.774 16.721C128.389 16.721 128.049 16.7833 127.754 16.908C127.471 17.0327 127.239 17.214 127.057 17.452C126.876 17.69 126.757 17.979 126.7 18.319H123.759C123.839 17.4463 124.094 16.6983 124.524 16.075C124.955 15.4403 125.533 14.9587 126.258 14.63C126.984 14.29 127.822 14.12 128.774 14.12C130.293 14.12 131.449 14.4657 132.242 15.157C133.036 15.837 133.432 16.8287 133.432 18.132V25H130.457V23.929H129.777C129.596 24.3597 129.318 24.6883 128.944 24.915C128.582 25.1417 128.1 25.255 127.499 25.255C126.853 25.255 126.281 25.1247 125.782 24.864C125.295 24.6033 124.91 24.2407 124.626 23.776C124.354 23.3113 124.218 22.7787 124.218 22.178C124.218 21.2373 124.507 20.478 125.085 19.9C125.675 19.322 126.513 18.948 127.601 18.778L130.627 18.319ZM140.525 11.74V14.46H145.098V17.146H140.525V21.26C140.525 21.7247 140.598 22.076 140.746 22.314C140.904 22.5407 141.142 22.654 141.46 22.654C141.788 22.654 142.049 22.5067 142.242 22.212C142.446 21.9173 142.616 21.43 142.752 20.75H145.455C145.387 22.2347 145.001 23.3737 144.299 24.167C143.607 24.949 142.638 25.34 141.392 25.34C140.122 25.34 139.148 24.9887 138.468 24.286C137.799 23.5833 137.465 22.5747 137.465 21.26V17.146H135.612V14.46H137.465V11.74H140.525ZM147.43 25V10.584H150.49V15.48H151.17C151.385 15.0493 151.697 14.715 152.105 14.477C152.513 14.239 152.995 14.12 153.55 14.12C154.23 14.12 154.808 14.2843 155.284 14.613C155.76 14.9417 156.123 15.4233 156.372 16.058C156.621 16.6927 156.746 17.4633 156.746 18.37V25H153.686V19.101C153.686 18.387 153.55 17.8543 153.278 17.503C153.017 17.1403 152.621 16.959 152.088 16.959C151.555 16.959 151.153 17.1403 150.881 17.503C150.62 17.8543 150.49 18.387 150.49 19.101V25H147.43Z"
    fill="#0A0A0A" />
</svg>
